<?xml version="1.0" standalone="no"?>
<!DOCTYPE svg PUBLIC "-//W3C//DTD SVG 20010904//EN"
 "http://www.w3.org/TR/2001/REC-SVG-20010904/DTD/svg10.dtd">
<svg version="1.0" xmlns="http://www.w3.org/2000/svg"
 width="172.000000pt" height="146.000000pt" viewBox="0 0 172.000000 146.000000"
 preserveAspectRatio="xMidYMid meet">
<metadata>
Created by potrace 1.16, written by Peter Selinger 2001-2019
</metadata>
<g transform="translate(0.000000,146.000000) scale(0.100000,-0.100000)"
fill="#fff" stroke="none">
<path d="M573 1140 c2 -8 30 -52 63 -97 l59 -82 200 -1 c111 0 217 -5 239 -11
56 -16 86 -49 86 -98 0 -81 -77 -111 -285 -111 -69 0 -125 -3 -125 -6 0 -3 57
-76 126 -162 70 -87 177 -219 237 -294 l111 -138 128 0 c70 0 128 2 128 5 0 3
-73 94 -162 201 -90 107 -164 201 -166 208 -2 7 16 21 38 31 53 24 113 84 142
143 34 70 33 188 -4 257 -77 147 -186 179 -596 173 -193 -2 -223 -5 -219 -18z"/>
<path d="M400 1141 c-199 -61 -285 -292 -173 -462 49 -74 109 -103 252 -123
127 -18 174 -34 191 -67 18 -33 6 -98 -24 -128 -26 -26 -28 -26 -222 -31
l-197 -5 -67 -95 -68 -95 102 -9 c64 -6 163 -5 272 2 202 13 258 29 321 94 60
63 76 101 81 193 5 99 -20 174 -78 234 -61 63 -106 81 -240 95 -162 18 -196
44 -174 134 13 53 53 72 164 79 50 3 89 9 88 12 -2 4 -30 46 -63 94 -59 85
-61 87 -100 86 -22 0 -51 -4 -65 -8z"/>
</g>
</svg>
